<?xml version="1.0" standalone="no"?>
<!DOCTYPE svg PUBLIC "-//W3C//DTD SVG 20010904//EN"
 "http://www.w3.org/TR/2001/REC-SVG-20010904/DTD/svg10.dtd">
<svg version="1.0" xmlns="http://www.w3.org/2000/svg"
 width="773.000000pt" height="773.000000pt" viewBox="0 0 773.000000 773.000000"
 preserveAspectRatio="xMidYMid meet">
<metadata>
Created by potrace 1.14, written by Peter Selinger 2001-2017
</metadata>
<g transform="translate(0.000000,773.000000) scale(0.100000,-0.100000)"
fill="#000000" stroke="none">
<path d="M3330 6556 l-1165 -832 -3 -417 -2 -417 335 0 335 0 2 252 3 252 830
582 c709 496 833 580 848 570 10 -6 384 -267 832 -581 l814 -570 0 -1087 1
-1088 335 0 335 0 -1 1253 0 1252 -1155 825 c-636 454 -1161 828 -1167 832 -7
4 -506 -346 -1177 -826z"/>
<path d="M4000 5390 l0 -170 165 0 165 0 0 170 0 170 -165 0 -165 0 0 -170z"/>
<path d="M4660 5390 l0 -170 170 0 170 0 0 170 0 170 -170 0 -170 0 0 -170z"/>
<path d="M4000 4725 l0 -165 165 0 165 0 0 165 0 165 -165 0 -165 0 0 -165z"/>
<path d="M4660 4725 l0 -165 170 0 170 0 0 165 0 165 -170 0 -170 0 0 -165z"/>
<path d="M160 2390 l0 -1830 1000 0 1000 0 2 238 3 239 1165 -324 1165 -323
1285 401 c707 221 1307 408 1333 416 l49 14 -4 252 c-4 218 -8 263 -26 329
-81 295 -268 524 -535 653 -187 90 -293 105 -758 105 l-336 0 -7 63 c-28 249
-124 454 -288 613 -99 96 -184 155 -287 200 -42 18 -330 127 -641 242 -311
116 -765 285 -1009 376 l-445 166 -1333 0 -1333 0 0 -1830z m1340 0 l0 -1170
-335 0 -335 0 0 1170 0 1170 335 0 335 0 0 -1170z m2174 804 c540 -202 993
-372 1007 -380 68 -34 149 -163 149 -235 0 -23 -25 -24 -340 -9 -382 19 -352
13 -797 161 -219 72 -403 134 -409 136 -13 5 -227 -624 -216 -631 37 -20 919
-303 996 -319 97 -19 142 -21 1136 -26 1087 -7 1057 -5 1130 -49 69 -42 146
-137 118 -147 -7 -2 -451 -140 -987 -306 l-973 -302 -297 83 c-163 45 -678
187 -1146 316 -467 129 -858 237 -867 240 -17 5 -18 58 -18 920 l0 914 267 0
267 0 980 -366z"/>
</g>
</svg>
